HIERARCHY
ROOT Hips
{
  OFFSET 279.157 85.6768 304.565
  CHANNELS 6 Xposition Yposition Zposition Zrotation Xrotation Yrotation
  JOINT LeftUpLeg
  {
    OFFSET 8.64259 1.95398 -2.38835
    CHANNELS 3 Zrotation Xrotation Yrotation
    JOINT LeftLeg
    {
      OFFSET 43.7702 0 0
      CHANNELS 3 Zrotation Xrotation Yrotation
      JOINT LeftFoot
      {
        OFFSET 40.6238 0 0
        CHANNELS 3 Zrotation Xrotation Yrotation
        JOINT LeftToeBase
        {
          OFFSET 12.7242 0 0
          CHANNELS 3 Zrotation Xrotation Yrotation
          End Site
          {
            OFFSET 0 0 0
          }
        }
      }
    }
  }
  JOINT RightUpLeg
  {
    OFFSET -8.2249 1.95398 -2.59336
    CHANNELS 3 Zrotation Xrotation Yrotation
    JOINT RightLeg
    {
      OFFSET 43.5653 0 0
      CHANNELS 3 Zrotation Xrotation Yrotation
      JOINT RightFoot
      {
        OFFSET 40.6238 0 0
        CHANNELS 3 Zrotation Xrotation Yrotation
        JOINT RightToeBase
        {
          OFFSET 12.7242 0 0
          CHANNELS 3 Zrotation Xrotation Yrotation
          End Site
          {
            OFFSET 0 0 0
          }
        }
      }
    }
  }
  JOINT Spine
  {
    OFFSET 0.165834 0.87714 6.61349
    CHANNELS 3 Zrotation Xrotation Yrotation
    JOINT Spine1
    {
      OFFSET 7.38963 1.71661e-005 0
      CHANNELS 3 Zrotation Xrotation Yrotation
      JOINT Spine2
      {
        OFFSET 11.9445 1.14441e-005 0
        CHANNELS 3 Zrotation Xrotation Yrotation
        JOINT Spine3
        {
          OFFSET 14.7254 4.19617e-005 0
          CHANNELS 3 Zrotation Xrotation Yrotation
          JOINT Spine4
          {
            OFFSET 10.9679 0 0
            CHANNELS 3 Zrotation Xrotation Yrotation
            JOINT RightShoulder
            {
              OFFSET 2.46616 -1.6653 3.69651
              CHANNELS 3 Zrotation Xrotation Yrotation
              JOINT RightArm
              {
                OFFSET 13.0012 0 0
                CHANNELS 3 Zrotation Xrotation Yrotation
                JOINT RightForeArm
                {
                  OFFSET 28.7848 1.52588e-005 0
                  CHANNELS 3 Zrotation Xrotation Yrotation
                  JOINT RightHand
                  {
                    OFFSET 26.5688 1.52588e-005 0
                    CHANNELS 3 Zrotation Xrotation Yrotation
                    End Site
                    {
                      OFFSET 0 0 0
                    }
                  }
                }
              }
            }
            JOINT LeftShoulder
            {
              OFFSET 2.38034 -1.29275 -3.7523
              CHANNELS 3 Zrotation Xrotation Yrotation
              JOINT LeftArm
              {
                OFFSET 16.3182 6.10351e-005 0
                CHANNELS 3 Zrotation Xrotation Yrotation
                JOINT LeftForeArm
                {
                  OFFSET 27.0901 0 0
                  CHANNELS 3 Zrotation Xrotation Yrotation
                  JOINT LeftHand
                  {
                    OFFSET 24.5451 1.52588e-005 0
                    CHANNELS 3 Zrotation Xrotation Yrotation
                    End Site
                    {
                      OFFSET 0 0 0
                    }
                  }
                }
              }
            }
            JOINT Neck
            {
              OFFSET 5.0226 -0.0266342 0
              CHANNELS 3 Zrotation Xrotation Yrotation
              JOINT Head
              {
                OFFSET 6.69364 2.86102e-005 0
                CHANNELS 3 Zrotation Xrotation Yrotation
                End Site
                {
                  OFFSET 0 0 0
                }
              }
            }
          }
        }
      }
    }
  }
}
MOTION
Frames:	10
Frame Time:	0.0416667
-153.1 100.413 103.309 103.824 -67.8497 100.907 -174.54 -3.43526 90.637 -7.61188 -4.61391 1.10611 66.3891 3.4648 -3.10147 17.4162 -9.08271 7.70499 172.557 -1.93761 86.7977 -10.3756 -11.627 -0.563289 64.255 -2.58218 -0.100898 26.3592 0.315069 3.40568 0.254928 7.57202 -90.2026 11.7305 0.412019 -0.447135 0.0595583 0.391927 -0.464839 -22.4758 0.527334 -0.302636 -2.46315 0.527349 -0.302633 91.644 -27.4646 -104.37 46.0172 -12.9629 -7.72735 4.70246 -23.1933 -12.5776 -25.8692 -0.695888 -7.35547 -87.2083 -53.3192 83.4532 -25.8863 13.6068 -11.1072 -0.209969 5.30835 -9.38641 0.233443 -0.144888 -6.75965 4.46218 -6.80779 1.36692 -8.15512 -6.78278 -3.25694 
-153.117 100.453 103.288 103.66 -67.7542 100.719 -174.579 -3.19421 90.5735 -7.97075 -5.66738 1.14593 66.0987 2.81813 -4.41895 18.0047 -8.45779 7.07417 172.563 -1.99753 86.7774 -10.1668 -11.1038 -0.568442 64.3899 -2.6039 0.501493 26.7238 0.372452 2.25824 0.202141 7.55589 -90.1808 11.7625 0.317156 -0.393969 0.0915525 0.299526 -0.407553 -22.4436 0.420902 -0.280431 -2.431 0.42091 -0.280432 91.0241 -28.4946 -105.268 44.7132 -13.1693 -7.91171 4.74887 -22.0552 -12.3042 -25.428 -0.527549 -7.94005 -88.0991 -53.4849 82.1916 -25.3604 13.7809 -9.77336 -0.35036 3.36515 -10.438 -0.659452 -0.125699 -6.94579 4.20331 -6.58861 0.967052 -7.82612 -6.52104 -2.91483 
-153.128 100.426 103.26 103.859 -67.7349 100.9 -174.617 -3.4047 90.5775 -7.76488 -5.3611 1.20732 66.8071 3.44372 -4.34141 17.2059 -9.33194 7.98933 172.539 -1.89735 86.7356 -10.4929 -10.9826 -0.549479 64.8313 -2.66924 1.29966 25.3128 0.880535 1.9263 0.210327 7.55688 -90.1838 11.7606 0.332037 -0.401439 0.0896049 0.314049 -0.41567 -22.4456 0.437335 -0.283093 -2.43296 0.437332 -0.28309 91.1304 -28.4679 -105.061 44.7459 -13.2145 -7.97433 4.83068 -22.1986 -12.1712 -25.4799 -0.529964 -7.9669 -87.8597 -53.3698 82.5185 -25.5277 14.2923 -9.84363 -0.699908 2.09489 -10.4111 -1.92475 -0.10725 -8.30483 4.39068 -6.46478 1.00993 -8.03092 -6.40812 -2.79984 
-153.176 100.436 103.267 104.144 -67.5792 101.377 -174.587 -3.30777 90.8279 -8.08619 -5.35486 1.36264 66.8447 3.30918 -4.45763 17.2414 -9.20754 7.73046 172.694 -2.18628 87.0236 -10.303 -10.9552 -0.565253 64.6064 -2.65157 1.01611 25.5149 0.820773 1.88945 0.203823 7.56172 -90.1993 11.7509 0.311775 -0.430229 0.0799174 0.292538 -0.443534 -22.4552 0.426652 -0.316639 -2.44254 0.426658 -0.316635 91.1933 -28.5317 -104.909 44.7517 -13.3917 -8.09371 4.93425 -22.4 -12.0485 -25.5577 -0.595013 -7.67495 -87.6349 -53.4453 82.8557 -25.0486 14.6594 -9.92716 -0.928858 1.86939 -10.4899 -1.78202 -0.113443 -8.78842 4.21168 -6.46798 0.962764 -7.99944 -6.39577 -2.95034 
-153.266 100.438 103.271 104.668 -67.5141 101.793 -174.541 -3.5411 90.8328 -8.0074 -5.11327 1.32023 66.688 3.32646 -4.31544 16.8204 -9.4841 7.72848 172.684 -2.0501 87.0337 -11.0194 -11.118 -0.574934 64.9391 -2.85092 0.680234 25.1517 0.931954 1.93705 0.208294 7.56933 -90.2085 11.7357 0.316542 -0.448886 0.0647041 0.296484 -0.462393 -22.4704 0.43681 -0.332999 -2.45774 0.436821 -0.333004 91.1612 -28.2454 -105.08 45.0042 -13.1105 -7.94108 4.76828 -22.5631 -11.8512 -25.6733 -0.593243 -7.7275 -87.9184 -54.0639 82.5493 -24.6007 14.3517 -9.59496 -0.831173 1.97133 -10.785 -1.13558 -0.137117 -8.68413 3.87781 -6.29139 1.5371 -7.94924 -6.30126 -3.34178 
-153.39 100.449 103.331 104.797 -67.2739 101.691 -174.669 -3.71792 90.6734 -7.77448 -5.00665 1.42411 66.4101 3.2748 -4.22843 17.4422 -9.13846 7.89166 172.612 -2.01974 86.9115 -11.3239 -10.8781 -0.58158 65.1539 -2.92687 0.696548 24.9068 1.01994 1.89012 0.210326 7.55262 -90.1913 11.7691 0.328364 -0.416056 0.0981537 0.309732 -0.430113 -22.437 0.438231 -0.29813 -2.42438 0.438229 -0.298143 91.2123 -28.2911 -104.959 45.1072 -13.2479 -7.68766 4.67999 -22.3698 -12.2124 -25.2469 -0.604047 -7.63833 -87.4544 -53.4946 83.1247 -24.9481 14.6875 -9.81669 -1.07024 1.7598 -10.4119 -0.866538 -0.147804 -8.742 3.32443 -6.34631 1.57421 -7.81054 -6.37489 -3.08813 
-153.581 100.443 103.443 105.364 -67.0572 102.193 -174.63 -4.14219 90.796 -7.42536 -4.73326 1.51456 66.2615 3.35944 -4.09517 17.4289 -9.1039 7.77929 172.687 -2.27854 87.0409 -11.4799 -10.6674 -0.618774 65.2723 -2.93411 0.669467 24.935 1.00611 1.91764 0.243139 7.58686 -90.2045 11.7008 0.387677 -0.448291 0.0297883 0.367571 -0.464918 -22.5055 0.504481 -0.311053 -2.49284 0.504479 -0.311059 91.3233 -27.7956 -104.913 45.8725 -13.1715 -7.7234 4.37776 -22.4648 -12.3357 -25.1105 -0.717072 -7.07693 -87.6207 -53.1635 82.8301 -25.4219 13.8953 -9.84214 -0.630912 2.55573 -10.1215 -1.03562 -0.142944 -8.87137 3.01022 -6.25073 1.72421 -7.72951 -6.31297 -2.95522 
-153.873 100.456 103.629 105.617 -66.74 102.43 -174.48 -4.19404 91.0503 -7.79342 -4.34274 1.52434 66.299 3.12494 -4.92386 18.1755 -9.22194 9.36946 172.949 -2.66129 87.3748 -11.3233 -9.97254 -0.724093 65.3596 -2.97253 0.698363 24.7284 1.07612 1.90394 0.240061 7.61826 -90.261 11.6381 0.355255 -0.557078 -0.032941 0.330403 -0.572177 -22.5679 0.506244 -0.424558 -2.55523 0.506256 -0.424555 91.6401 -26.8646 -104.598 46.5035 -13.1446 -7.98956 4.95949 -21.8951 -12.1129 -25.0076 -0.481612 -8.18642 -87.1706 -54.3855 83.6709 -23.8036 14.2751 -10.1143 -0.944949 2.37409 -10.085 -1.21091 -0.142532 -9.22409 3.21137 -6.02981 2.53708 -8.35176 -6.21318 -3.03165 
-154.302 100.436 103.89 105.817 -65.8853 102.489 -174.087 -4.51401 91.5569 -7.49406 -3.24454 1.32479 66.1374 3.26704 -4.88614 18.2284 -9.08078 9.09276 173.155 -2.95449 87.7222 -11.7004 -9.07647 -0.759324 65.6647 -3.04737 0.493823 24.6216 1.11559 1.87774 0.223494 7.6217 -90.2788 11.631 0.313917 -0.58816 -0.0400791 0.287735 -0.601418 -22.5748 0.47618 -0.466621 -2.56216 0.476176 -0.466628 91.3412 -27.0897 -105.139 46.2306 -12.8301 -7.65308 4.91413 -21.5073 -11.6979 -25.0778 -0.414745 -8.42143 -87.4777 -53.4364 83.0817 -25.16 13.9127 -8.88415 -0.642454 0.734595 -10.8992 0.720843 -0.149321 -6.54706 1.74547 -5.96955 2.5033 -7.57128 -6.15075 -2.92297 
-154.915 100.385 104.095 104.988 -64.83 101.715 -173.594 -4.13719 92.2746 -7.28872 -0.602278 0.96473 65.391 3.49909 -3.19483 18.1312 -8.85089 8.32552 173.445 -2.90797 88.3428 -11.8831 -7.85947 -0.628255 65.8587 -3.06159 0.161076 24.3351 1.20594 1.89908 0.31263 7.65645 -90.256 11.562 0.5022 -0.561726 -0.108981 0.476981 -0.583288 -22.6444 0.647793 -0.384825 -2.63173 0.647797 -0.384829 90.8163 -28.9275 -105.529 44.6031 -12.7153 -7.11407 4.5077 -20.5935 -12.3024 -24.3425 -0.216123 -9.31248 -86.9566 -51.797 83.5797 -25.8922 13.2414 -9.79916 -0.0805352 2.6655 -10.0984 -1.05255 -0.13355 -7.99275 1.58801 -6.09412 1.654 -7.66184 -6.15091 -2.70402 
